<?xml version="1.0" encoding="UTF-8"?>
<svg width="56px" height="138px" viewBox="0 0 56 138" version="1.1" xmlns="http://www.w3.org/2000/svg" xmlns:xlink="http://www.w3.org/1999/xlink">
    <title>back-to-top</title>
    <g id="Page-1" stroke="none" stroke-width="1" fill="none" fill-rule="evenodd">
        <g id="back-to-top" transform="translate(0.300000, 0.130000)" fill-rule="nonzero">
            <path d="M27.5,137 L27.5,137 C12.31,137 0,124.69 0,109.5 L0,27.5 C0,12.31 12.31,0 27.5,0 L27.5,0 C42.69,0 55,12.31 55,27.5 L55,109.5 C55,124.69 42.69,137 27.5,137 Z" id="Path" fill="#0F1F2A"></path>
            <polygon id="Path" fill="#FFFFFF" points="27.5 22.74 17.01 33.55 38 33.55"></polygon>
            <polygon id="Path" fill="#FFFFFF" points="27.5 39.68 17.01 50.49 38 50.49"></polygon>
            <polygon id="Path" fill="#FFFFFF" points="27.5 56.62 17.01 67.43 38 67.43"></polygon>
            <g id="Group" transform="translate(6.520000, 80.659317)" fill="#FFFFFF">
                <path d="M6.47,0.56068276 L9.42,0.51068276 C9.79,0.50068276 10.13,0.54068276 10.45,0.62068276 C10.77,0.70068276 11.04,0.83068276 11.27,1.00068276 C11.5,1.17068276 11.69,1.38068276 11.82,1.65068276 C11.96,1.92068276 12.03,2.23068276 12.03,2.59068276 C12.04,3.08068276 11.91,3.48068276 11.64,3.79068276 C11.37,4.10068276 11.02,4.33068276 10.6,4.49068276 L10.6,4.51068276 C10.86,4.52068276 11.1,4.58068276 11.32,4.70068276 C11.54,4.82068276 11.74,4.96068276 11.91,5.15068276 C12.08,5.33068276 12.21,5.55068276 12.31,5.80068276 C12.41,6.05068276 12.46,6.31068276 12.47,6.60068276 C12.48,6.98068276 12.4,7.32068276 12.25,7.62068276 C12.1,7.91068276 11.89,8.16068276 11.62,8.37068276 C11.35,8.58068276 11.04,8.73068276 10.68,8.84068276 C10.32,8.95068276 9.94,9.01068276 9.52,9.02068276 L6.6,9.07068276 L6.47,0.56068276 Z M7.68,4.06068276 L9.25,4.03068276 C9.47,4.03068276 9.67,4.00068276 9.86,3.95068276 C10.05,3.90068276 10.22,3.83068276 10.36,3.72068276 C10.5,3.61068276 10.61,3.48068276 10.7,3.32068276 C10.78,3.16068276 10.82,2.96068276 10.82,2.73068276 C10.81,2.39068276 10.7,2.11068276 10.48,1.86068276 C10.26,1.62068276 9.92,1.50068276 9.45,1.51068276 L7.64,1.54068276 L7.68,4.06068276 Z M7.75,8.02068276 L9.44,7.99068276 C9.62,7.99068276 9.81,7.97068276 10.02,7.93068276 C10.23,7.89068276 10.43,7.81068276 10.61,7.70068276 C10.79,7.59068276 10.95,7.44068276 11.07,7.25068276 C11.19,7.06068276 11.26,6.82068276 11.25,6.51068276 C11.24,6.01068276 11.07,5.63068276 10.74,5.39068276 C10.41,5.14068276 9.96,5.03068276 9.4,5.04068276 L7.7,5.07068276 L7.75,8.02068276 Z" id="Shape"></path>
                <path d="M16.37,0.38068276 L17.41,0.36068276 L21.19,8.79068276 L19.85,8.81068276 L18.96,6.73068276 L14.92,6.80068276 L14.12,8.91068276 L12.78,8.93068276 L16.37,0.38068276 Z M18.53,5.73068276 L16.88,1.86068276 L16.86,1.86068276 L15.32,5.79068276 L18.53,5.73068276 Z" id="Shape"></path>
                <path d="M27.5,2.03068276 C27.25,1.72068276 26.95,1.49068276 26.58,1.33068276 C26.21,1.17068276 25.83,1.09068276 25.44,1.10068276 C24.96,1.11068276 24.53,1.21068276 24.14,1.39068276 C23.75,1.58068276 23.43,1.83068276 23.16,2.14068276 C22.89,2.46068276 22.68,2.83068276 22.54,3.25068276 C22.4,3.67068276 22.33,4.12068276 22.34,4.60068276 C22.35,5.05068276 22.43,5.47068276 22.58,5.87068276 C22.73,6.27068276 22.95,6.62068276 23.22,6.91068276 C23.5,7.21068276 23.83,7.44068276 24.23,7.61068276 C24.63,7.78068276 25.07,7.86068276 25.57,7.85068276 C26.06,7.84068276 26.48,7.73068276 26.85,7.53068276 C27.21,7.32068276 27.52,7.04068276 27.77,6.67068276 L28.76,7.39068276 C28.7,7.48068276 28.59,7.61068276 28.43,7.77068276 C28.27,7.94068276 28.06,8.10068276 27.8,8.27068276 C27.54,8.44068276 27.22,8.59068276 26.85,8.72068276 C26.48,8.85068276 26.05,8.92068276 25.56,8.93068276 C24.89,8.94068276 24.28,8.82068276 23.74,8.58068276 C23.2,8.33068276 22.73,8.01068276 22.34,7.60068276 C21.95,7.19068276 21.65,6.72068276 21.45,6.20068276 C21.24,5.68068276 21.13,5.15068276 21.12,4.62068276 C21.11,3.96068276 21.2,3.36068276 21.41,2.80068276 C21.62,2.24068276 21.91,1.76068276 22.29,1.34068276 C22.67,0.93068276 23.13,0.61068276 23.67,0.37068276 C24.21,0.14068276 24.81,0.0106827602 25.46,0.000682760248 C26.02,-0.00931723975 26.57,0.0906827602 27.12,0.29068276 C27.66,0.50068276 28.11,0.82068276 28.46,1.26068276 L27.5,2.03068276 Z" id="Path"></path>
                <polygon id="Path" points="29.63 0.15068276 30.78 0.13068276 30.84 3.80068276 30.94 3.80068276 34.63 0.0606827602 36.24 0.0306827602 32.2 4.03068276 36.66 8.52068276 34.98 8.55068276 30.95 4.37068276 30.85 4.37068276 30.92 8.62068276 29.77 8.64068276"></polygon>
                <polygon id="Path" points="2.76 13.7006828 0.02 13.7506828 1.42108547e-14 12.6706828 6.62 12.5506828 6.64 13.6306828 3.9 13.6806828 4.03 21.1006828 2.88 21.1206828"></polygon>
                <path d="M11.36,21.1906828 C10.71,21.2006828 10.11,21.1006828 9.57,20.8806828 C9.02,20.6606828 8.55,20.3606828 8.16,19.9606828 C7.76,19.5706828 7.45,19.1006828 7.22,18.5606828 C6.99,18.0206828 6.87,17.4406828 6.86,16.8006828 C6.85,16.1706828 6.95,15.5806828 7.16,15.0306828 C7.37,14.4806828 7.67,14.0106828 8.05,13.6006828 C8.43,13.1906828 8.89,12.8706828 9.43,12.6306828 C9.97,12.3906828 10.56,12.2706828 11.21,12.2606828 C11.86,12.2506828 12.46,12.3506828 13,12.5706828 C13.54,12.7906828 14.02,13.0906828 14.41,13.4906828 C14.81,13.8806828 15.12,14.3506828 15.35,14.8906828 C15.58,15.4306828 15.7,16.0206828 15.71,16.6506828 C15.72,17.2806828 15.62,17.8706828 15.41,18.4206828 C15.2,18.9706828 14.9,19.4506828 14.52,19.8506828 C14.14,20.2606828 13.68,20.5806828 13.14,20.8206828 C12.6,21.0606828 12.01,21.1706828 11.36,21.1906828 Z M11.35,20.1106828 C11.84,20.1006828 12.28,20.0006828 12.66,19.8206828 C13.05,19.6306828 13.38,19.3906828 13.66,19.0806828 C13.93,18.7706828 14.15,18.4106828 14.29,18.0006828 C14.44,17.5806828 14.5,17.1506828 14.5,16.6806828 C14.49,16.2206828 14.41,15.7806828 14.25,15.3706828 C14.09,14.9606828 13.87,14.6106828 13.58,14.3106828 C13.29,14.0106828 12.95,13.7706828 12.56,13.6006828 C12.17,13.4306828 11.72,13.3406828 11.24,13.3506828 C10.75,13.3606828 10.31,13.4606828 9.93,13.6406828 C9.54,13.8306828 9.21,14.0706828 8.93,14.3806828 C8.65,14.6906828 8.45,15.0506828 8.3,15.4606828 C8.16,15.8806828 8.09,16.3106828 8.1,16.7806828 C8.11,17.2406828 8.19,17.6806828 8.35,18.0906828 C8.51,18.5006828 8.73,18.8506828 9.02,19.1506828 C9.31,19.4506828 9.65,19.6906828 10.04,19.8606828 C10.42,20.0306828 10.86,20.1206828 11.35,20.1106828 Z" id="Shape"></path>
                <polygon id="Path" points="21.95 13.3706828 19.21 13.4206828 19.19 12.3406828 25.81 12.2206828 25.83 13.3006828 23.09 13.3506828 23.22 20.7706828 22.07 20.7906828"></polygon>
                <path d="M30.55,20.8506828 C29.9,20.8606828 29.3,20.7606828 28.76,20.5406828 C28.22,20.3206828 27.74,20.0206828 27.34,19.6206828 C26.95,19.2306828 26.63,18.7606828 26.4,18.2206828 C26.17,17.6806828 26.05,17.0906828 26.04,16.4606828 C26.03,15.8306828 26.13,15.2406828 26.34,14.6906828 C26.55,14.1406828 26.85,13.6706828 27.23,13.2606828 C27.61,12.8506828 28.07,12.5306828 28.61,12.2906828 C29.15,12.0506828 29.74,11.9306828 30.39,11.9206828 C31.04,11.9106828 31.64,12.0106828 32.18,12.2306828 C32.72,12.4506828 33.2,12.7506828 33.59,13.1506828 C33.99,13.5406828 34.3,14.0106828 34.53,14.5506828 C34.76,15.0906828 34.88,15.6806828 34.89,16.3106828 C34.9,16.9406828 34.8,17.5306828 34.59,18.0806828 C34.38,18.6306828 34.08,19.1106828 33.7,19.5106828 C33.32,19.9206828 32.86,20.2406828 32.32,20.4806828 C31.78,20.7206828 31.2,20.8406828 30.55,20.8506828 Z M30.53,19.7706828 C31.02,19.7606828 31.46,19.6606828 31.84,19.4806828 C32.23,19.2906828 32.56,19.0506828 32.84,18.7406828 C33.11,18.4306828 33.33,18.0706828 33.47,17.6606828 C33.62,17.2406828 33.68,16.8106828 33.68,16.3406828 C33.67,15.8806828 33.59,15.4406828 33.43,15.0306828 C33.27,14.6206828 33.05,14.2706828 32.76,13.9706828 C32.47,13.6706828 32.13,13.4306828 31.74,13.2606828 C31.35,13.0906828 30.9,13.0006828 30.42,13.0106828 C29.93,13.0206828 29.49,13.1206828 29.11,13.3006828 C28.72,13.4906828 28.39,13.7306828 28.11,14.0406828 C27.83,14.3506828 27.63,14.7106828 27.48,15.1206828 C27.34,15.5406828 27.27,15.9706828 27.28,16.4406828 C27.29,16.9006828 27.37,17.3406828 27.53,17.7506828 C27.69,18.1606828 27.91,18.5106828 28.2,18.8106828 C28.49,19.1106828 28.83,19.3506828 29.22,19.5206828 C29.6,19.7006828 30.04,19.7806828 30.53,19.7706828 Z" id="Shape"></path>
                <path d="M36.21,12.0406828 L39.2,11.9906828 C39.74,11.9806828 40.19,12.0506828 40.55,12.1906828 C40.91,12.3306828 41.19,12.5206828 41.39,12.7406828 C41.6,12.9606828 41.74,13.2206828 41.83,13.5006828 C41.91,13.7806828 41.96,14.0606828 41.96,14.3206828 C41.96,14.5806828 41.93,14.8606828 41.85,15.1406828 C41.77,15.4206828 41.64,15.6806828 41.44,15.9206828 C41.24,16.1506828 40.97,16.3406828 40.62,16.5006828 C40.27,16.6606828 39.82,16.7406828 39.28,16.7506828 L37.44,16.7806828 L37.51,20.5206828 L36.36,20.5406828 L36.21,12.0406828 Z M37.42,15.7606828 L38.93,15.7306828 C39.15,15.7306828 39.38,15.7006828 39.6,15.6606828 C39.82,15.6206828 40.01,15.5506828 40.18,15.4506828 C40.35,15.3506828 40.49,15.2106828 40.59,15.0306828 C40.69,14.8506828 40.74,14.6106828 40.73,14.3306828 C40.73,14.0406828 40.67,13.8106828 40.56,13.6306828 C40.45,13.4506828 40.31,13.3206828 40.14,13.2206828 C39.97,13.1306828 39.77,13.0606828 39.55,13.0306828 C39.33,13.0006828 39.11,12.9806828 38.88,12.9906828 L37.37,13.0206828 L37.42,15.7606828 Z" id="Shape"></path>
            </g>
        </g>
    </g>
</svg>