<?xml version="1.0" encoding="UTF-8" standalone="no"?>
<!DOCTYPE svg PUBLIC "-//W3C//DTD SVG 1.1//EN" "http://www.w3.org/Graphics/SVG/1.1/DTD/svg11.dtd">
<svg width="100%" height="100%" viewBox="0 0 2705 1275" version="1.1" xmlns="http://www.w3.org/2000/svg" xmlns:xlink="http://www.w3.org/1999/xlink" xml:space="preserve" xmlns:serif="http://www.serif.com/" style="fill-rule:evenodd;clip-rule:evenodd;stroke-linejoin:round;stroke-miterlimit:2;">
    <g transform="matrix(4.16667,0,0,4.16667,0,0)">
        <path d="M620.594,0L28.344,0C12.69,0 0,12.691 0,28.345L0,277.656C0,293.31 12.69,306 28.344,306L620.594,306C636.248,306 648.938,293.31 648.938,277.656L648.938,28.345C648.938,12.691 636.248,0 620.594,0Z" style="fill:rgb(4,47,66);fill-rule:nonzero;"/>
        <path d="M155.382,202.471L151.477,214.621C141.189,218.212 134.376,221.249 113.314,221.249C77.786,221.249 65.506,193.909 78.904,152.211C91.059,114.379 114.143,86.764 150.431,86.764C173.182,86.764 186.403,96.855 186.857,112.522L157.738,112.522C158.615,103.963 156.518,96.154 145.892,96.154C128.636,96.154 118.264,116.589 109.746,143.098C96.614,183.971 106.685,206.336 129.776,206.336C137.645,206.336 148.581,204.679 155.382,202.471Z" style="fill:white;fill-rule:nonzero;"/>
        <path d="M181.901,220.764L211.622,128.256C217.832,108.925 215.28,101.717 199.978,101.165L201.752,95.642L250.016,86.804L239.459,122.181L239.966,122.181C247.385,112.515 266.51,89.319 289.35,89.319C312.949,89.319 312.842,107.821 310.625,120.248L311.132,120.248C319.923,109.478 336.043,89.319 358.88,89.319C391.108,89.319 380.817,121.352 374.518,140.959L348.877,220.764L323.501,220.764L347.722,145.377C353.223,128.256 359.7,108.097 342.697,108.097C323.412,108.097 304.959,137.092 298.572,156.975L278.078,220.764L252.7,220.764L275.68,149.243C282.689,127.427 288.898,108.097 271.897,108.097C254.387,108.097 235.223,133.78 228.925,153.386L207.276,220.764L181.901,220.764Z" style="fill:white;fill-rule:nonzero;"/>
        <path d="M384.656,220.515L413.607,127.592C419.685,108.676 416.275,94.405 401.301,93.864L403.22,88.186L450.143,88.186L408.591,220.515L384.656,220.515Z" style="fill:white;fill-rule:nonzero;"/>
        <path d="M506.414,99.472L496.07,99.472C480.417,99.472 474.449,104.29 468.695,118.832L468.474,119.392L460.943,119.392L471.598,88.145L575.025,88.145L565.901,120.003L558.336,120.003L558.697,118.851C563.395,103.863 558.977,99.472 543.82,99.472L530.638,99.472L491.816,220.515L467.591,220.515L506.414,99.472Z" style="fill:white;fill-rule:nonzero;"/>
        <path d="M604.045,74.774C606.11,74.774 607.625,74.974 608.588,75.373C610.31,76.089 611.17,77.494 611.173,79.587C611.173,81.074 610.627,82.169 609.537,82.871C608.96,83.243 608.155,83.511 607.123,83.677C608.429,83.883 609.387,84.427 609.993,85.308C610.598,86.189 610.902,87.05 610.902,87.891L610.902,89.109C610.902,89.495 610.916,89.908 610.942,90.349C610.971,90.789 611.02,91.079 611.089,91.216L611.19,91.422L608.444,91.422C608.429,91.367 608.418,91.312 608.404,91.257C608.389,91.203 608.375,91.141 608.36,91.071L608.3,90.535L608.3,89.212C608.3,87.286 607.777,86.012 606.731,85.39C606.11,85.033 605.02,84.855 603.468,84.854L601.152,84.854L601.152,91.422L598.221,91.422L598.221,74.774L604.045,74.774ZM607.183,77.397C606.453,76.984 605.277,76.777 603.653,76.777L601.152,76.777L601.152,82.809L603.797,82.809C605.034,82.809 605.966,82.685 606.583,82.437C607.728,81.982 608.3,81.116 608.3,79.835C608.3,78.623 607.927,77.811 607.183,77.397ZM615.075,93.901C612.113,96.876 608.533,98.364 604.333,98.364C600.134,98.364 596.56,96.876 593.611,93.901C590.681,90.942 589.213,87.355 589.213,83.139C589.213,78.967 590.693,75.4 593.655,72.439C596.603,69.492 600.159,68.02 604.333,68.02C608.533,68.02 612.113,69.492 615.075,72.439C618.035,75.387 619.515,78.954 619.518,83.139C619.518,87.34 618.035,90.927 615.075,93.901ZM595.12,73.906C592.588,76.454 591.322,79.532 591.322,83.139C591.322,86.775 592.579,89.873 595.1,92.434C597.636,94.996 600.713,96.276 604.333,96.276C607.956,96.276 611.031,94.996 613.567,92.434C616.099,89.873 617.365,86.775 617.365,83.139C617.365,79.532 616.099,76.454 613.567,73.906C611.02,71.344 607.942,70.064 604.333,70.064C600.739,70.064 597.67,71.344 595.12,73.906Z" style="fill:white;"/>
    </g>
</svg>
