<?xml version="1.0" encoding="UTF-8" standalone="no"?>
<!DOCTYPE svg PUBLIC "-//W3C//DTD SVG 1.1//EN" "http://www.w3.org/Graphics/SVG/1.1/DTD/svg11.dtd">
<svg width="100%" height="100%" viewBox="0 0 1496 346" version="1.1" xmlns="http://www.w3.org/2000/svg" xmlns:xlink="http://www.w3.org/1999/xlink" xml:space="preserve" xmlns:serif="http://www.serif.com/" style="fill-rule:evenodd;clip-rule:evenodd;stroke-linejoin:round;stroke-miterlimit:2;">
    <g transform="matrix(4.16667,0,0,4.16667,0,0)">
        <path d="M22.745,54.411L21.659,57.791C18.797,58.79 16.901,59.635 11.043,59.635C1.159,59.635 -2.256,52.03 1.47,40.43C4.852,29.905 11.273,22.223 21.368,22.223C27.697,22.223 31.375,25.03 31.501,29.389L23.4,29.389C23.645,27.008 23.061,24.836 20.105,24.836C15.305,24.836 12.419,30.52 10.05,37.895C6.397,49.265 9.198,55.487 15.622,55.487C17.811,55.487 20.853,55.026 22.745,54.411Z" style="fill:rgb(4,47,67);fill-rule:nonzero;"/>
        <path d="M30.122,59.5L38.39,33.766C40.118,28.388 39.408,26.383 35.151,26.23L35.645,24.693L49.071,22.235L46.134,32.076L46.275,32.076C48.339,29.387 53.659,22.934 60.013,22.934C66.578,22.934 66.548,28.081 65.931,31.538L66.072,31.538C68.518,28.542 73.002,22.934 79.355,22.934C88.32,22.934 85.458,31.845 83.705,37.3L76.572,59.5L69.513,59.5L76.251,38.529C77.781,33.766 79.583,28.158 74.853,28.158C69.488,28.158 64.355,36.224 62.578,41.755L56.877,59.5L49.817,59.5L56.21,39.604C58.16,33.535 59.887,28.158 55.158,28.158C50.287,28.158 44.956,35.302 43.204,40.757L37.181,59.5L30.122,59.5Z" style="fill:rgb(4,47,67);fill-rule:nonzero;"/>
        <path d="M86.525,59.431L94.579,33.581C96.27,28.319 95.321,24.349 91.156,24.198L91.69,22.619L104.743,22.619L93.184,59.431L86.525,59.431Z" style="fill:rgb(4,47,67);fill-rule:nonzero;"/>
        <path d="M120.397,25.759L117.52,25.759C113.165,25.759 111.505,27.099 109.904,31.144L109.843,31.3L107.748,31.3L110.712,22.608L139.483,22.608L136.945,31.47L134.841,31.47L134.941,31.15C136.248,26.98 135.019,25.759 130.802,25.759L127.136,25.759L116.336,59.431L109.597,59.431L120.397,25.759Z" style="fill:rgb(4,47,67);fill-rule:nonzero;"/>
        <path d="M180.084,36.262C180.915,36.809 181.766,37.366 182.546,37.99C183.332,38.617 184.058,39.319 184.627,40.153C185.775,41.833 186.263,44.009 185.418,47.099C183.186,55.261 175.944,58.069 168.717,58.069C166.644,58.069 164.733,57.832 163.223,57.565C161.718,57.299 160.611,57.006 160.139,56.895L159.889,56.836L161.249,51.861L161.513,51.979C161.881,52.145 162.901,52.64 164.408,53.094C165.912,53.548 167.9,53.959 170.206,53.959C174.863,53.959 178.93,51.664 180.047,47.581C180.621,45.479 180.23,44.073 179.398,42.971C178.976,42.413 178.433,41.925 177.822,41.463C177.207,40.997 176.534,40.566 175.868,40.124L172.993,38.233C172.237,37.731 171.41,37.221 170.62,36.648C169.823,36.071 169.053,35.422 168.427,34.644C167.161,33.072 166.508,31.001 167.327,28.008C169.176,21.247 175.472,17.984 182.601,17.984C184.451,17.984 186.083,18.166 187.411,18.383C188.735,18.6 189.756,18.851 190.388,18.991L190.642,19.047L189.324,23.862L189.059,23.739C188.237,23.357 185.288,22.093 181.224,22.093C176.913,22.093 173.574,24.325 172.637,27.749C172.199,29.351 172.66,30.561 173.545,31.589C173.993,32.108 174.55,32.58 175.158,33.029C175.77,33.48 176.425,33.901 177.058,34.316L180.084,36.262Z" style="fill:rgb(4,47,67);"/>
        <path d="M196.523,54.405C200.676,54.405 203.944,50.566 205.765,43.911C207.585,37.254 206.378,33.548 202.361,33.548C198.266,33.548 195.036,37.438 193.231,44.042C191.395,50.759 192.565,54.405 196.523,54.405ZM188.4,43.966C190.525,36.197 195.274,29.883 203.228,29.883C211.354,29.883 212.682,36.355 210.564,44.097C208.438,51.87 203.662,58.069 195.656,58.069C187.586,58.069 186.284,51.709 188.4,43.966Z" style="fill:rgb(4,47,67);"/>
        <path d="M221.444,18.596L225.738,18.596L215.112,57.458L210.818,57.458L221.444,18.596Z" style="fill:rgb(4,47,67);"/>
        <path d="M236.807,52.373C235.265,54.718 232.346,58.069 227.232,58.069C222.407,58.069 221.231,54.018 222.444,49.583L227.664,30.495L231.958,30.495L227.859,45.487C226.552,50.268 225.665,53.793 229.156,53.793C233.959,53.793 238.447,46.373 239.758,41.576L242.788,30.495L247.082,30.495L239.71,57.458L235.415,57.458L236.807,52.373Z" style="fill:rgb(4,47,67);"/>
        <path d="M258.4,57.765L258.239,57.789C257.069,57.958 255.915,58.069 254.792,58.069C249.293,58.069 247.748,55.803 249.083,50.917L253.665,34.16L249.328,34.16L250.33,30.495L254.668,30.495L256.333,24.403L261.37,21.687L258.962,30.495L266.08,30.495L265.077,34.16L257.959,34.16L253.556,50.269C253.083,51.995 252.841,54.405 256.436,54.405C257.026,54.405 257.456,54.352 257.849,54.264C258.249,54.175 258.611,54.052 259.06,53.916L259.489,53.784L258.4,57.765Z" style="fill:rgb(4,47,67);"/>
        <path d="M272.734,21.084L278.252,21.084L276.748,26.583L271.23,26.583L272.734,21.084ZM270.924,30.495L275.218,30.495L267.846,57.458L263.551,57.458L270.924,30.495Z" style="fill:rgb(4,47,67);"/>
        <path d="M284.206,54.405C288.359,54.405 291.628,50.566 293.448,43.911C295.268,37.254 294.061,33.548 290.044,33.548C285.949,33.548 282.72,37.438 280.914,44.042C279.077,50.759 280.248,54.405 284.206,54.405ZM276.084,43.966C278.208,36.197 282.958,29.883 290.911,29.883C299.037,29.883 300.364,36.355 298.247,44.097C296.121,51.87 291.346,58.069 283.34,58.069C275.269,58.069 273.967,51.709 276.084,43.966Z" style="fill:rgb(4,47,67);"/>
        <path d="M308.429,35.635C309.993,33.29 312.919,29.883 318.073,29.883C322.84,29.883 324.074,33.932 322.861,38.37L317.642,57.458L313.348,57.458L317.446,42.465C318.753,37.685 319.64,34.16 316.149,34.16C311.346,34.16 306.803,41.582 305.491,46.377L302.462,57.458L298.167,57.458L305.54,30.495L309.834,30.495L308.429,35.635Z" style="fill:rgb(4,47,67);"/>
        <path d="M337.502,42.051C338.099,42.413 338.73,42.781 339.323,43.201C339.929,43.628 340.505,44.118 340.967,44.714C341.904,45.923 342.342,47.534 341.701,49.879C340.22,55.298 335.682,58.069 329.431,58.069C325.946,58.069 323.406,57.282 322.425,56.944L322.207,56.868L323.281,52.936L323.534,53.03C323.835,53.14 324.691,53.485 325.846,53.802C326.997,54.119 328.436,54.405 329.908,54.405C333.549,54.405 336.5,53.194 337.29,50.305C337.631,49.059 337.148,48.176 336.395,47.473C336.014,47.118 335.566,46.813 335.125,46.538C334.677,46.259 334.25,46.02 333.919,45.796L331.878,44.518C331.36,44.169 330.771,43.815 330.201,43.416C329.624,43.011 329.052,42.549 328.582,41.987C327.628,40.846 327.116,39.316 327.73,37.072C328.939,32.655 332.975,29.883 338.948,29.883C340.385,29.883 341.609,30.038 342.619,30.228C343.623,30.417 344.415,30.64 344.991,30.78L345.238,30.84L344.14,34.861L343.879,34.752C343.092,34.423 340.758,33.548 338.137,33.548C334.963,33.548 332.569,35.08 332.096,36.813C331.834,37.77 332.221,38.442 332.936,39.039C333.297,39.341 333.737,39.616 334.207,39.888C334.682,40.163 335.182,40.433 335.636,40.712L337.502,42.051Z" style="fill:rgb(4,47,67);"/>
        <path d="M322.763,74.329L322.397,74.329C320.955,74.329 319.391,74.978 319.157,76.217C319.015,76.969 319.431,77.457 319.979,77.457C321.238,77.457 322.444,76.014 322.659,74.878L322.763,74.329ZM321.946,78.655L322.172,77.457C321.789,77.985 320.849,78.878 319.365,78.878C317.558,78.878 316.83,77.782 317.114,76.278C317.598,73.719 320.536,73.11 322.992,73.11L323.311,71.424C323.325,70.491 322.753,70.186 322.063,70.186C320.966,70.186 320.385,70.897 320.239,71.669L318.311,71.669C318.602,70.124 319.771,68.764 322.474,68.764C325.642,68.764 325.193,71.14 325.027,72.014L323.774,78.655L321.946,78.655ZM310.775,71.891L314.472,71.891C314.587,71.282 314.429,70.186 313.027,70.186C311.524,70.186 310.857,71.465 310.775,71.891ZM315.091,77.111L314.819,78.553C313.992,78.736 313.396,78.878 312.341,78.878C309.416,78.878 307.873,77.151 308.59,73.354C309.373,69.211 312.158,68.764 313.396,68.764C315.753,68.764 316.587,70.369 316.158,72.643L316.069,73.11L310.465,73.11C310.123,74.917 310.558,77.457 313.198,77.457C314.03,77.457 314.638,77.253 315.091,77.111ZM301.641,78.655L303.98,66.266L300.486,66.266L300.794,64.641L309.811,64.641L309.504,66.266L306.011,66.266L303.672,78.655L301.641,78.655ZM284.713,82.818L286.849,78.715L285.009,68.987L287.04,68.987L288.26,75.974L291.894,68.987L293.925,68.987L286.5,82.818L284.713,82.818ZM276.73,73.78C276.488,75.06 276.322,77.233 277.947,77.233C279.511,77.233 280.475,75.141 280.766,73.598C281.042,72.135 280.902,70.186 279.298,70.186C277.693,70.186 277.007,72.319 276.73,73.78ZM283.464,68.987L281.566,79.04C281.037,81.843 279.234,83 276.351,83C274.848,83 273.857,82.757 273.451,82.656L273.799,80.807C274.334,81.092 275.258,81.579 276.436,81.579C279.26,81.579 279.631,79.609 279.838,78.512L280.122,77.01C279.799,77.538 278.775,78.655 277.109,78.655C274.571,78.655 274.224,76.298 274.691,73.821C275.209,71.079 276.642,68.764 279.099,68.764C280.643,68.764 281.235,69.82 281.343,70.328L281.636,68.987L283.464,68.987ZM266.566,73.821C266.275,75.365 266.124,77.457 268.136,77.457C270.105,77.457 270.764,75.365 271.056,73.821C271.35,72.257 271.478,70.186 269.508,70.186C267.496,70.186 266.862,72.257 266.566,73.821ZM267.866,78.878C264.941,78.878 263.961,76.868 264.536,73.821C265.119,70.734 266.852,68.764 269.775,68.764C272.681,68.764 273.669,70.734 273.086,73.821C272.511,76.868 270.771,78.878 267.866,78.878ZM259.26,78.655L261.906,64.641L263.734,64.641L261.088,78.655L259.26,78.655ZM251.154,73.821C250.863,75.365 250.712,77.457 252.723,77.457C254.693,77.457 255.352,75.365 255.643,73.821C255.938,72.257 256.065,70.186 254.096,70.186C252.084,70.186 251.449,72.257 251.154,73.821ZM252.455,78.878C249.529,78.878 248.549,76.868 249.123,73.821C249.706,70.734 251.439,68.764 254.363,68.764C257.268,68.764 258.256,70.734 257.674,73.821C257.099,76.868 255.358,78.878 252.455,78.878ZM238.366,78.655L240.19,68.987L242.019,68.987L241.628,71.059C242.146,70.247 243.198,68.764 245.168,68.764C247.402,68.764 247.393,70.753 247.166,71.953L245.9,78.655L244.073,78.655L245.069,73.374C245.407,71.586 245.595,70.592 244.274,70.592C242.771,70.592 241.332,72.623 240.969,74.552L240.194,78.655L238.366,78.655ZM227.83,78.655L230.476,64.641L232.303,64.641L231.092,71.059C231.611,70.247 232.662,68.764 234.632,68.764C236.866,68.764 236.856,70.753 236.631,71.953L235.365,78.655L233.537,78.655L234.533,73.374C234.871,71.586 235.059,70.592 233.738,70.592C232.236,70.592 230.797,72.623 230.433,74.552L229.657,78.655L227.83,78.655ZM226.148,77.253L225.911,78.512C225.157,78.736 224.299,78.878 223.161,78.878C219.465,78.878 218.996,75.873 219.448,73.475C219.958,70.774 221.577,68.764 224.461,68.764C227.202,68.764 227.576,70.551 227.277,72.135L225.186,72.135C225.323,71.405 225.411,70.186 224.07,70.186C222.873,70.186 221.882,71.343 221.545,73.13C221.185,75.04 221.52,77.457 224.566,77.457C225.074,77.457 225.59,77.415 226.148,77.253ZM212.662,71.891L216.357,71.891C216.474,71.282 216.315,70.186 214.914,70.186C213.411,70.186 212.742,71.465 212.662,71.891ZM216.978,77.111L216.705,78.553C215.878,78.736 215.283,78.878 214.228,78.878C211.303,78.878 209.76,77.151 210.477,73.354C211.259,69.211 214.044,68.764 215.283,68.764C217.64,68.764 218.474,70.369 218.044,72.643L217.956,73.11L212.351,73.11C212.01,74.917 212.444,77.457 215.084,77.457C215.917,77.457 216.523,77.253 216.978,77.111ZM203.527,78.655L205.866,66.266L202.373,66.266L202.68,64.641L211.697,64.641L211.391,66.266L207.897,66.266L205.559,78.655L203.527,78.655ZM188.77,78.655L190.596,68.987L192.423,68.987L192.055,70.937C192.505,70.165 193.582,68.764 195.491,68.764L195.115,70.753C193.471,70.753 191.932,71.586 191.372,74.552L190.598,78.655L188.77,78.655ZM183.84,78.655L184.23,76.582C183.731,77.395 182.66,78.878 180.69,78.878C178.456,78.878 178.467,76.887 178.692,75.69L179.957,68.987L181.785,68.987L180.789,74.268C180.447,76.075 180.264,77.05 181.583,77.05C183.086,77.05 184.525,75.019 184.89,73.09L185.665,68.987L187.492,68.987L185.668,78.655L183.84,78.655ZM170.331,73.821C170.04,75.365 169.889,77.457 171.899,77.457C173.869,77.457 174.528,75.365 174.819,73.821C175.115,72.257 175.242,70.186 173.272,70.186C171.261,70.186 170.626,72.257 170.331,73.821ZM171.631,78.878C168.706,78.878 167.725,76.868 168.3,73.821C168.883,70.734 170.616,68.764 173.54,68.764C176.444,68.764 177.433,70.734 176.851,73.821C176.275,76.868 174.535,78.878 171.631,78.878ZM161.035,78.655L162.258,72.176L159.193,64.641L161.427,64.641L163.676,70.044L167.986,64.641L170.221,64.641L164.29,72.176L163.066,78.655L161.035,78.655ZM326.718,78.655L328.543,68.987L330.37,68.987L330.006,70.916C330.478,70.145 331.428,68.764 333.154,68.764C334.86,68.764 335.248,69.942 335.225,70.815C335.744,70.003 336.79,68.764 338.395,68.764C340.669,68.764 340.639,70.753 340.412,71.953L339.146,78.655L337.319,78.655L338.315,73.374C338.657,71.566 338.841,70.592 337.501,70.592C336.363,70.592 335.027,72.399 334.721,74.024L333.847,78.655L332.019,78.655L333.015,73.374C333.353,71.586 333.54,70.592 332.261,70.592C330.982,70.592 329.684,72.623 329.319,74.552L328.545,78.655L326.718,78.655Z" style="fill:rgb(239,65,55);fill-rule:nonzero;"/>
        <path d="M142.909,38.68C142.638,41.774 144.926,44.501 148.019,44.772C151.111,45.042 153.838,42.753 154.109,39.661C154.38,36.567 152.092,33.84 148.999,33.569C145.906,33.298 143.18,35.586 142.909,38.68Z" style="fill:rgb(239,65,55);"/>
        <path d="M150.909,25.809C150.648,28.286 152.445,30.506 154.922,30.767C157.4,31.027 159.62,29.23 159.88,26.752C160.141,24.274 158.344,22.054 155.866,21.793C153.389,21.533 151.169,23.331 150.909,25.809Z" style="fill:rgb(239,65,55);fill-rule:nonzero;"/>
        <path d="M158.383,15.124C158.158,17.265 159.711,19.183 161.852,19.408C163.992,19.633 165.91,18.08 166.135,15.939C166.36,13.797 164.808,11.879 162.667,11.654C160.526,11.429 158.608,12.982 158.383,15.124Z" style="fill:rgb(239,65,55);fill-rule:nonzero;"/>
        <path d="M167.615,7.85C167.416,9.743 168.789,11.438 170.682,11.638C172.575,11.837 174.27,10.464 174.469,8.571C174.669,6.678 173.295,4.982 171.403,4.783C169.51,4.583 167.814,5.957 167.615,7.85Z" style="fill:rgb(239,65,55);fill-rule:nonzero;"/>
        <path d="M177.832,3.566C177.653,5.261 178.883,6.779 180.577,6.957C182.27,7.136 183.789,5.906 183.967,4.212C184.145,2.517 182.916,0.999 181.223,0.821C179.527,0.643 178.01,1.872 177.832,3.566Z" style="fill:rgb(239,65,55);fill-rule:nonzero;"/>
        <path d="M188.068,2.593C187.919,4.012 188.948,5.284 190.367,5.434C191.787,5.583 193.059,4.553 193.208,3.133C193.357,1.713 192.328,0.441 190.908,0.293C189.489,0.143 188.217,1.173 188.068,2.593Z" style="fill:rgb(239,65,55);fill-rule:nonzero;"/>
        <path d="M197.352,3.713C197.219,4.975 198.135,6.105 199.395,6.238C200.657,6.371 201.788,5.456 201.921,4.194C202.054,2.932 201.139,1.801 199.877,1.668C198.615,1.536 197.484,2.451 197.352,3.713Z" style="fill:rgb(239,65,55);fill-rule:nonzero;"/>
        <path d="M205.181,7.61C205.072,8.636 205.815,9.554 206.841,9.662C207.866,9.77 208.785,9.026 208.893,8C209,6.975 208.257,6.057 207.231,5.949C206.207,5.841 205.288,6.585 205.181,7.61Z" style="fill:rgb(239,65,55);fill-rule:nonzero;"/>
        <path d="M146.883,52.912C147.143,50.434 145.346,48.214 142.869,47.954C140.391,47.693 138.171,49.491 137.911,51.968C137.65,54.446 139.448,56.666 141.925,56.927C144.402,57.187 146.622,55.39 146.883,52.912Z" style="fill:rgb(239,65,55);fill-rule:nonzero;"/>
        <path d="M139.408,63.597C139.633,61.456 138.081,59.538 135.94,59.313C133.799,59.087 131.881,60.64 131.656,62.782C131.431,64.923 132.984,66.841 135.124,67.066C137.265,67.291 139.183,65.739 139.408,63.597Z" style="fill:rgb(239,65,55);fill-rule:nonzero;"/>
        <path d="M130.175,70.871C130.375,68.978 129.002,67.282 127.109,67.082C125.217,66.883 123.521,68.257 123.322,70.15C123.123,72.042 124.496,73.739 126.389,73.938C128.281,74.136 129.977,72.764 130.175,70.871Z" style="fill:rgb(239,65,55);fill-rule:nonzero;"/>
        <path d="M119.959,75.154C120.138,73.459 118.909,71.941 117.214,71.763C115.521,71.586 114.003,72.814 113.824,74.508C113.646,76.203 114.875,77.721 116.569,77.899C118.264,78.078 119.781,76.848 119.959,75.154Z" style="fill:rgb(239,65,55);fill-rule:nonzero;"/>
        <path d="M109.723,76.128C109.873,74.707 108.843,73.436 107.423,73.287C106.004,73.137 104.732,74.167 104.582,75.587C104.434,77.007 105.463,78.279 106.883,78.428C108.302,78.578 109.574,77.547 109.723,76.128Z" style="fill:rgb(239,65,55);fill-rule:nonzero;"/>
        <path d="M100.439,75.007C100.572,73.746 99.656,72.616 98.395,72.482C97.133,72.349 96.002,73.265 95.87,74.527C95.737,75.79 96.652,76.92 97.914,77.052C99.176,77.185 100.307,76.27 100.439,75.007Z" style="fill:rgb(239,65,55);fill-rule:nonzero;"/>
        <path d="M92.61,71.111C92.718,70.086 91.974,69.166 90.949,69.059C89.924,68.952 89.005,69.695 88.898,70.72C88.79,71.746 89.533,72.665 90.559,72.772C91.584,72.879 92.502,72.136 92.61,71.111Z" style="fill:rgb(239,65,55);fill-rule:nonzero;"/>
        <path d="M352.818,25.399C353.518,25.399 354.03,25.467 354.357,25.602C354.939,25.845 355.23,26.32 355.232,27.029C355.232,27.532 355.047,27.903 354.678,28.141C354.482,28.267 354.21,28.357 353.86,28.414C354.303,28.483 354.627,28.667 354.832,28.966C355.037,29.264 355.14,29.556 355.14,29.84L355.14,30.252C355.14,30.383 355.145,30.523 355.153,30.672C355.163,30.821 355.18,30.919 355.203,30.966L355.237,31.036L354.308,31.036C354.303,31.017 354.299,30.999 354.294,30.98C354.289,30.961 354.284,30.94 354.279,30.917L354.259,30.735L354.259,30.288C354.259,29.635 354.082,29.204 353.728,28.994C353.518,28.873 353.148,28.812 352.623,28.812L351.839,28.812L351.839,31.036L350.847,31.036L350.847,25.399L352.818,25.399ZM353.881,26.288C353.634,26.147 353.235,26.078 352.686,26.078L351.839,26.078L351.839,28.12L352.734,28.12C353.153,28.12 353.469,28.078 353.678,27.994C354.065,27.84 354.259,27.546 354.259,27.113C354.259,26.703 354.133,26.428 353.881,26.288ZM356.553,31.875C355.55,32.882 354.338,33.386 352.916,33.386C351.494,33.386 350.284,32.882 349.286,31.875C348.294,30.873 347.797,29.659 347.797,28.231C347.797,26.819 348.298,25.611 349.301,24.609C350.299,23.611 351.503,23.113 352.916,23.113C354.338,23.113 355.55,23.611 356.553,24.609C357.555,25.607 358.056,26.814 358.057,28.231C358.057,29.654 357.555,30.868 356.553,31.875ZM349.797,25.105C348.939,25.968 348.511,27.01 348.511,28.231C348.511,29.462 348.936,30.511 349.79,31.378C350.648,32.246 351.69,32.679 352.916,32.679C354.143,32.679 355.184,32.246 356.042,31.378C356.899,30.511 357.328,29.462 357.328,28.231C357.328,27.01 356.899,25.968 356.042,25.105C355.18,24.238 354.138,23.805 352.916,23.805C351.699,23.805 350.66,24.238 349.797,25.105Z" style="fill:rgb(4,47,67);"/>
    </g>
</svg>
