<svg xmlns="http://www.w3.org/2000/svg" width="24.009" height="20.855" viewBox="0 0 24.009 20.855">
  <path id="Linked" d="M287.49,6994.22v-14.171h4.68v14.171Zm18.1,0v-7.328c0-1.92-.83-3.228-2.656-3.228a2.666,2.666,0,0,0-2.533,1.734,3.055,3.055,0,0,0-.116,1.157v7.666h-5.255s.067-12.984,0-14.164h5.255v2.222c.311-.972,1.991-2.359,4.673-2.359,3.325,0,5.938,2.038,5.938,6.424v7.876Zm-15.912-15.937a2.538,2.538,0,0,1-2.791-2.456,2.87,2.87,0,1,1,2.826,2.456Z" transform="translate(-286.886 -6973.365)" fill="#0f2f42"/>
</svg>
