<svg xmlns="http://www.w3.org/2000/svg" width="26.841" height="18.766" viewBox="0 0 26.841 18.766">
  <path id="youtube" d="M403.107,6976.847a3.85,3.85,0,0,0-2.689-1.13c-3.756-.27-9.391-.27-9.391-.27h-.012s-5.634,0-9.391.27a3.852,3.852,0,0,0-2.69,1.13,5.748,5.748,0,0,0-1.066,2.648,40.147,40.147,0,0,0-.268,4.318v2.024a40.114,40.114,0,0,0,.268,4.318,5.745,5.745,0,0,0,1.066,2.648,4.569,4.569,0,0,0,2.96,1.141c2.147.206,9.126.269,9.126.269s5.64-.009,9.4-.279a3.853,3.853,0,0,0,2.689-1.131,5.751,5.751,0,0,0,1.067-2.648,40.083,40.083,0,0,0,.268-4.318v-2.024a40.115,40.115,0,0,0-.268-4.318A5.754,5.754,0,0,0,403.107,6976.847Zm-15.586,12.241v-9.094l8.746,4.563Z" transform="translate(-377.601 -6975.447)" fill="#0f2f42"/>
</svg>
